<?xml version="1.0" encoding="UTF-8" standalone="no"?>
<svg
   xmlns:dc="http://purl.org/dc/elements/1.1/"
   xmlns:cc="http://creativecommons.org/ns#"
   xmlns:rdf="http://www.w3.org/1999/02/22-rdf-syntax-ns#"
   xmlns:svg="http://www.w3.org/2000/svg"
   xmlns="http://www.w3.org/2000/svg"
   xmlns:xlink="http://www.w3.org/1999/xlink"
   xmlns:sodipodi="http://sodipodi.sourceforge.net/DTD/sodipodi-0.dtd"
   xmlns:inkscape="http://www.inkscape.org/namespaces/inkscape"
   width="100mm"
   height="15mm"
   viewBox="0 0 100 15"
   version="1.1"
   id="svg1071"
   inkscape:version="1.0.2 (e86c870879, 2021-01-15)"
   sodipodi:docname="bergwerf_labs.svg">
  <defs
     id="defs1065">
    <linearGradient
       inkscape:collect="always"
       id="linearGradient874">
      <stop
         style="stop-color:#000000;stop-opacity:1;"
         offset="0"
         id="stop870" />
      <stop
         style="stop-color:#000080;stop-opacity:0.3019608"
         offset="1"
         id="stop872" />
    </linearGradient>
    <linearGradient
       inkscape:collect="always"
       xlink:href="#linearGradient874"
       id="linearGradient876"
       gradientUnits="userSpaceOnUse"
       x1="3"
       y1="11.175"
       x2="57"
       y2="11.175" />
  </defs>
  <sodipodi:namedview
     id="base"
     pagecolor="#ffffff"
     bordercolor="#666666"
     borderopacity="1.0"
     inkscape:pageopacity="0.0"
     inkscape:pageshadow="2"
     inkscape:zoom="4"
     inkscape:cx="144.44893"
     inkscape:cy="23.576546"
     inkscape:document-units="mm"
     inkscape:current-layer="g875"
     inkscape:document-rotation="0"
     showgrid="true"
     inkscape:window-width="3840"
     inkscape:window-height="2063"
     inkscape:window-x="0"
     inkscape:window-y="60"
     inkscape:window-maximized="1">
    <inkscape:grid
       type="xygrid"
       id="grid882" />
  </sodipodi:namedview>
  <metadata
     id="metadata1068">
    <rdf:RDF>
      <cc:Work
         rdf:about="">
        <dc:format>image/svg+xml</dc:format>
        <dc:type
           rdf:resource="http://purl.org/dc/dcmitype/StillImage" />
        <dc:title />
      </cc:Work>
    </rdf:RDF>
  </metadata>
  <g
     inkscape:label="Layer 1"
     inkscape:groupmode="layer"
     id="layer1">
    <g
       aria-label="Bergwerf LABS"
       id="text1075"
       style="font-style:normal;font-weight:normal;font-size:14px;line-height:1.25;font-family:sans-serif;fill:#000000;fill-opacity:1;stroke:none;stroke-width:0.264583">
      <g
         id="g875"
         transform="translate(0,-3.1750001)">
        <g
           id="g1110"
           style="fill:#4f00ff;fill-opacity:1">
          <path
             d="m 69.098266,13.509 q 0.315,0 0.51,0.195 0.21,0.195 0.21,0.51 0,0.3 -0.21,0.495 -0.195,0.195 -0.51,0.195 h -5.07 q -0.315,0 -0.525,-0.21 -0.195,-0.21 -0.195,-0.51 v -9.06 q 0,-0.3 0.21,-0.51 0.21,-0.21 0.54,-0.21 0.3,0 0.51,0.21 0.225,0.21 0.225,0.51 v 8.385 z"
             style="font-style:normal;font-variant:normal;font-weight:bold;font-stretch:normal;font-size:15px;font-family:'Quicksand Medium';-inkscape-font-specification:'Quicksand Medium, Bold';fill:#4f00ff;fill-opacity:1"
             id="path1095" />
          <path
             d="m 79.728,13.974 q 0.045,0.135 0.045,0.285 0,0.3 -0.21,0.495 -0.195,0.195 -0.465,0.195 -0.21,0 -0.39,-0.12 -0.165,-0.135 -0.27,-0.36 l -0.93,-2.205 h -4.635 l -0.915,2.22 q -0.075,0.225 -0.255,0.345 -0.165,0.12 -0.375,0.12 -0.315,0 -0.48,-0.165 -0.165,-0.165 -0.165,-0.45 0,-0.06 0.03,-0.24 l 3.825,-9.27 q 0.105,-0.24 0.285,-0.36 0.195,-0.135 0.435,-0.105 0.225,0 0.405,0.12 0.18,0.12 0.255,0.345 z m -6.285,-3.075 h 3.495 l -1.755,-4.2 z"
             style="font-style:normal;font-variant:normal;font-weight:bold;font-stretch:normal;font-size:15px;font-family:'Quicksand Medium';-inkscape-font-specification:'Quicksand Medium, Bold';fill:#4f00ff;fill-opacity:1"
             id="path1097" />
          <path
             d="m 87.203233,9.174 q 0.825,0.285 1.35,0.945 0.54,0.645 0.54,1.695 0,1.665 -0.975,2.385 -0.96,0.705 -2.355,0.705 h -3.855 q -0.3,0 -0.51,-0.21 -0.21,-0.21 -0.21,-0.51 v -9.06 q 0,-0.3 0.21,-0.51 0.21,-0.21 0.51,-0.21 h 3.855 q 1.365,0 2.07,0.675 0.72,0.675 0.72,1.95 0,0.72 -0.345,1.29 -0.345,0.555 -1.005,0.855 z m -0.195,-1.92 q 0,-0.705 -0.39,-1.065 -0.375,-0.375 -1.065,-0.375 h -2.835 v 2.925 h 2.865 q 0.615,-0.015 1.02,-0.39 0.405,-0.39 0.405,-1.095 z m -1.26,6.27 q 0.825,0 1.32,-0.42 0.495,-0.435 0.495,-1.29 0,-1.665 -1.89,-1.665 h -2.955 v 3.375 z"
             style="font-style:normal;font-variant:normal;font-weight:bold;font-stretch:normal;font-size:15px;font-family:'Quicksand Medium';-inkscape-font-specification:'Quicksand Medium, Bold';fill:#4f00ff;fill-opacity:1"
             id="path1099" />
          <path
             d="m 94.163231,15.054 q -1.095,0 -1.935,-0.3 -0.84,-0.315 -1.605,-1.005 -0.315,-0.27 -0.315,-0.615 0,-0.27 0.21,-0.48 0.21,-0.225 0.495,-0.225 0.255,0 0.435,0.165 0.6,0.555 1.23,0.825 0.645,0.255 1.455,0.255 0.945,0 1.59,-0.435 0.66,-0.435 0.66,-1.095 -0.015,-0.78 -0.66,-1.2 -0.63,-0.435 -1.935,-0.72 -1.545,-0.3149997 -2.385,-1.035 -0.825,-0.72 -0.825,-1.995 0,-0.885 0.465,-1.545 0.465,-0.675 1.29,-1.035 0.825,-0.36 1.86,-0.36 0.93,0 1.755,0.3 0.825,0.3 1.335,0.795 0.345,0.3 0.345,0.645 0,0.27 -0.21,0.48 -0.195,0.21 -0.48,0.21 -0.21,0 -0.345,-0.12 -0.39,-0.39 -1.08,-0.66 -0.69,-0.27 -1.32,-0.27 -1.005,0 -1.605,0.42 -0.585,0.405 -0.585,1.08 0,0.735 0.585,1.125 0.6,0.39 1.77,0.66 1.17,0.255 1.905,0.6 0.75,0.3450003 1.155,0.96 0.405,0.615 0.405,1.605 0,0.87 -0.495,1.545 -0.48,0.675 -1.32,1.05 -0.84,0.375 -1.845,0.375 z"
             style="font-style:normal;font-variant:normal;font-weight:bold;font-stretch:normal;font-size:15px;font-family:'Quicksand Medium';-inkscape-font-specification:'Quicksand Medium, Bold';fill:#4f00ff;fill-opacity:1"
             id="path1101" />
        </g>
        <g
           id="g1719"
           style="fill:url(#linearGradient876);fill-opacity:1">
          <g
             id="g1681"
             style="fill:url(#linearGradient876);fill-opacity:1">
            <path
               d="m 6.9929352,9.595648 q 0.84,0.21 1.372,0.84 0.532,0.63 0.532,1.638 0,1.372 -0.854,2.058 -0.84,0.672 -2.1,0.672 h -3.766 q -0.182,0 -0.308,-0.112 -0.112,-0.126 -0.112,-0.308 v -8.96 q 0,-0.182 0.112,-0.294 0.126,-0.126 0.308,-0.126 h 3.71 q 1.176,0 1.834,0.644 0.672,0.644 0.672,1.764 0,0.742 -0.364,1.33 -0.364,0.588 -1.036,0.854 z m 0.504,-2.114 q 0,-0.77 -0.462,-1.204 -0.448,-0.448 -1.26,-0.448 h -3.122 v 3.5 h 3.122 q 0.756,-0.014 1.232,-0.49 0.49,-0.476 0.49,-1.358 z m -1.596,6.496 q 0.938,0 1.512,-0.476 0.588,-0.476 0.588,-1.428 0,-0.98 -0.602,-1.442 -0.588,-0.462 -1.526,-0.462 h -3.22 v 3.808 z"
               style="font-style:normal;font-variant:normal;font-weight:normal;font-stretch:normal;font-size:14px;font-family:Quicksand;-inkscape-font-specification:Quicksand;fill:url(#linearGradient876);fill-opacity:1;stroke-width:0.264583"
               id="path1079" />
            <path
               d="m 16.694904,10.813648 q 0,0.168 -0.126,0.294 -0.126,0.112 -0.294,0.112 h -5.292 q 0,0.84 0.336,1.512 0.35,0.658 0.98,1.05 0.644,0.378 1.512,0.378 0.672,0 1.204,-0.28 0.532,-0.28 0.854,-0.714 0.154,-0.126 0.294,-0.126 0.14,0 0.252,0.112 0.112,0.112 0.112,0.252 0,0.154 -0.14,0.294 -0.448,0.546 -1.134,0.896 -0.672,0.35 -1.428,0.35 -1.078,0 -1.904,-0.462 -0.826,-0.462 -1.288,-1.288 -0.462001,-0.84 -0.462001,-1.932 0,-1.148 0.448001,-2.002 0.462,-0.868 1.218,-1.316 0.756,-0.462 1.61,-0.462 0.84,0 1.568,0.392 0.742,0.392 1.204,1.148 0.462,0.756 0.476,1.792 z m -3.248,-2.52 q -0.812,0 -1.512,0.56 -0.686,0.56 -0.882,1.61 h 4.774 v -0.112 q -0.07,-0.63 -0.42,-1.092 -0.35,-0.476 -0.882,-0.714 -0.518,-0.252 -1.078,-0.252 z"
               style="font-style:normal;font-variant:normal;font-weight:normal;font-stretch:normal;font-size:14px;font-family:Quicksand;-inkscape-font-specification:Quicksand;fill:url(#linearGradient876);fill-opacity:1;stroke-width:0.264583"
               id="path1081" />
            <path
               d="m 21.877,7.481648 q 0.28,0 0.504,0.112 0.224,0.112 0.224,0.336 0,0.196 -0.112,0.322 -0.112,0.112 -0.266,0.112 -0.07,0 -0.28,-0.07 -0.196,-0.07 -0.378,-0.07 -0.518,0 -1.036,0.406 -0.504,0.392 -0.84,1.022 -0.322,0.63 -0.322,1.274 v 3.458 q 0,0.182 -0.126,0.308 -0.112,0.112 -0.294,0.112 -0.182,0 -0.308,-0.112 -0.112,-0.126 -0.112,-0.308 v -6.272 q 0,-0.182 0.112,-0.294 0.126,-0.126 0.308,-0.126 0.182,0 0.294,0.126 0.126,0.112 0.126,0.294 v 1.232 q 0.322,-0.798 0.966,-1.316 0.658,-0.532 1.54,-0.546 z"
               style="font-style:normal;font-variant:normal;font-weight:normal;font-stretch:normal;font-size:14px;font-family:Quicksand;-inkscape-font-specification:Quicksand;fill:url(#linearGradient876);fill-opacity:1;stroke-width:0.264583"
               id="path1083" />
            <path
               d="m 29.658858,7.649648 c 0.121333,0 0.219333,0.042 0.294,0.126 0.084,0.074667 0.126,0.1773333 0.126,0.308 v 6.062 c 0,0.728 -0.154,1.348667 -0.462,1.862 -0.298667,0.522667 -0.714,0.919333 -1.246,1.19 -0.522667,0.270667 -1.124667,0.406 -1.806,0.406 -0.326667,0 -0.672,-0.042 -1.036,-0.126 -0.354667,-0.084 -0.662667,-0.191333 -0.924,-0.322 -0.300253,-0.155578 -0.539798,-0.42958 -0.532,-0.63 0.002,-0.102329 0.042,-0.168 0.126,-0.224 0.03733,-0.028 0.084,-0.042 0.14,-0.042 0.056,0 0.163333,0.03267 0.322,0.098 l 0.294,0.126 c 0.578667,0.224 1.12,0.336 1.624,0.336 0.830667,0 1.479333,-0.238 1.946,-0.714 0.476,-0.466667 0.714,-1.101333 0.714,-1.904 v -0.868 c -0.233333,0.504 -0.602,0.900667 -1.106,1.19 -0.504,0.28 -1.031333,0.42 -1.582,0.42 -0.644,0 -1.227333,-0.158667 -1.75,-0.476 -0.513333,-0.326667 -0.919333,-0.774667 -1.218,-1.344 -0.298667,-0.569333 -0.448,-1.208667 -0.448,-1.918 0,-0.7 0.149333,-1.3346667 0.448,-1.904 0.298667,-0.5693333 0.704667,-1.0126667 1.218,-1.33 0.522667,-0.3266667 1.101333,-0.49 1.736,-0.49 0.588,0 1.124667,0.1493333 1.61,0.448 0.494667,0.2893333 0.858667,0.6393333 1.092,1.05 v -0.896 c 0,-0.1213333 0.03733,-0.224 0.112,-0.308 0.084,-0.084 0.186667,-0.126 0.308,-0.126 z m -3.038,6.51 c 0.513333,0 0.970667,-0.121333 1.372,-0.364 0.410667,-0.252 0.728,-0.602 0.952,-1.05 0.233333,-0.457333 0.35,-0.970667 0.35,-1.54 0,-0.569333 -0.116667,-1.078 -0.35,-1.526 -0.224,-0.448 -0.541333,-0.7933333 -0.952,-1.036 -0.401333,-0.252 -0.858667,-0.378 -1.372,-0.378 -0.504,0 -0.961333,0.1306667 -1.372,0.392 -0.401333,0.252 -0.718667,0.602 -0.952,1.05 -0.224,0.448 -0.336,0.947333 -0.336,1.498 0,0.56 0.112,1.064 0.336,1.512 0.233333,0.448 0.550667,0.802667 0.952,1.064 0.410667,0.252 0.868,0.378 1.372,0.378 z"
               style="font-style:normal;font-variant:normal;font-weight:normal;font-stretch:normal;font-size:14px;font-family:Quicksand;-inkscape-font-specification:Quicksand;fill:url(#linearGradient876);fill-opacity:1;stroke-width:0.264583"
               id="path1085"
               sodipodi:nodetypes="scssccsccccsccscsccscssscsccscssccsccsccsccs" />
            <path
               d="m 40.788843,7.495648 q 0.182,0 0.294,0.112 0.126,0.112 0.126,0.308 0,0.014 -0.042,0.182 l -2.156,6.44 q -0.07,0.126 -0.182,0.21 -0.112,0.07 -0.238,0.056 -0.126,0 -0.224,-0.07 -0.098,-0.07 -0.154,-0.196 l -1.834,-4.312 -1.638,4.312 q -0.056,0.112 -0.168,0.196 -0.098,0.07 -0.21,0.07 -0.14,0.014 -0.266,-0.056 -0.112,-0.084 -0.154,-0.21 l -2.212,-6.44 q -0.042,-0.084 -0.042,-0.182 0,-0.182 0.126,-0.294 0.126,-0.126 0.308,-0.126 0.126,0 0.224,0.084 0.112,0.07 0.154,0.196 l 1.862,5.586 1.666,-4.186 q 0.098,-0.266 0.392,-0.266 0.28,0 0.392,0.266 l 1.75,4.158 1.834,-5.558 q 0.084,-0.28 0.392,-0.28 z"
               style="font-style:normal;font-variant:normal;font-weight:normal;font-stretch:normal;font-size:14px;font-family:Quicksand;-inkscape-font-specification:Quicksand;fill:url(#linearGradient876);fill-opacity:1;stroke-width:0.264583"
               id="path1087" />
            <path
               d="m 48.767,10.813648 q 0,0.168 -0.126,0.294 -0.126,0.112 -0.294,0.112 h -5.292 q 0,0.84 0.336,1.512 0.35,0.658 0.98,1.05 0.644,0.378 1.512,0.378 0.672,0 1.204,-0.28 0.532,-0.28 0.854,-0.714 0.154,-0.126 0.294,-0.126 0.14,0 0.252,0.112 0.112,0.112 0.112,0.252 0,0.154 -0.14,0.294 -0.448,0.546 -1.134,0.896 -0.672,0.35 -1.428,0.35 -1.078,0 -1.904,-0.462 -0.826,-0.462 -1.288,-1.288 -0.462,-0.84 -0.462,-1.932 0,-1.148 0.448,-2.002 0.462,-0.868 1.218,-1.316 0.756,-0.462 1.61,-0.462 0.84,0 1.568,0.392 0.742,0.392 1.204,1.148 0.462,0.756 0.476,1.792 z m -3.248,-2.52 q -0.812,0 -1.512,0.56 -0.686,0.56 -0.882,1.61 h 4.774 v -0.112 q -0.07,-0.63 -0.42,-1.092 -0.35,-0.476 -0.882,-0.714 -0.518,-0.252 -1.078,-0.252 z"
               style="font-style:normal;font-variant:normal;font-weight:normal;font-stretch:normal;font-size:14px;font-family:Quicksand;-inkscape-font-specification:Quicksand;fill:url(#linearGradient876);fill-opacity:1;stroke-width:0.264583"
               id="path1089" />
            <path
               d="m 53.849,7.481648 q 0.28,0 0.504,0.112 0.224,0.112 0.224,0.336 0,0.196 -0.112,0.322 -0.112,0.112 -0.266,0.112 -0.07,0 -0.28,-0.07 -0.196,-0.07 -0.378,-0.07 -0.518,0 -1.036,0.406 -0.504,0.392 -0.84,1.022 -0.322,0.63 -0.322,1.274 v 3.458 q 0,0.182 -0.126,0.308 -0.112,0.112 -0.294,0.112 -0.182,0 -0.308,-0.112 -0.112,-0.126 -0.112,-0.308 v -6.272 q 0,-0.182 0.112,-0.294 0.126,-0.126 0.308,-0.126 0.182,0 0.294,0.126 0.126,0.112 0.126,0.294 v 1.232 q 0.322,-0.798 0.966,-1.316 0.658,-0.532 1.54,-0.546 z"
               style="font-style:normal;font-variant:normal;font-weight:normal;font-stretch:normal;font-size:14px;font-family:Quicksand;-inkscape-font-specification:Quicksand;fill:url(#linearGradient876);fill-opacity:1;stroke-width:0.264583"
               id="path1091" />
            <path
               d="m 58.484801,5.241648 q -0.448,0 -0.7,0.294 -0.238,0.294 -0.238,0.812 v 1.442 h 1.568 q 0.154,0 0.266,0.112 0.126,0.112 0.126,0.28 0,0.168 -0.126,0.28 -0.112,0.112 -0.266,0.112 h -1.568 v 5.81 q 0,0.182 -0.126,0.308 -0.112,0.112 -0.294,0.112 -0.182,0 -0.308,-0.112 -0.112,-0.126 -0.112,-0.308 v -5.81 h -1.022 q -0.168,0 -0.28,-0.112 -0.112,-0.126 -0.112,-0.28 0,-0.182 0.112,-0.28 0.112,-0.112 0.28,-0.112 h 1.022 v -1.442 q 0,-0.882 0.504,-1.358 0.518,-0.49 1.372,-0.49 0.392,0 0.728,0.126 0.336,0.112 0.336,0.378 0,0.168 -0.112,0.28 -0.112,0.112 -0.252,0.112 -0.126,0 -0.308,-0.07 -0.308,-0.084 -0.49,-0.084 z"
               style="font-style:normal;font-variant:normal;font-weight:normal;font-stretch:normal;font-size:14px;font-family:Quicksand;-inkscape-font-specification:Quicksand;fill:url(#linearGradient876);fill-opacity:1;stroke-width:0.264583"
               id="path1093" />
          </g>
          <rect
             style="fill:url(#linearGradient876);fill-opacity:1;stroke-width:0.0700042"
             id="rect1104"
             width="20.959492"
             height="0.76600641"
             x="1.744253"
             y="15.961981"
             rx="0.40000001"
             ry="0.32384804" />
        </g>
      </g>
    </g>
  </g>
</svg>
