<?xml version="1.0" encoding="UTF-8" standalone="no"?>
<svg
   xmlns:dc="http://purl.org/dc/elements/1.1/"
   xmlns:cc="http://creativecommons.org/ns#"
   xmlns:rdf="http://www.w3.org/1999/02/22-rdf-syntax-ns#"
   xmlns:svg="http://www.w3.org/2000/svg"
   xmlns="http://www.w3.org/2000/svg"
   xmlns:sodipodi="http://sodipodi.sourceforge.net/DTD/sodipodi-0.dtd"
   xmlns:inkscape="http://www.inkscape.org/namespaces/inkscape"
   version="1.1"
   id="svg2"
   xml:space="preserve"
   width="283.46667"
   height="64.253334"
   viewBox="0 0 283.46667 64.253334"
   sodipodi:docname="radboud.svg"
   inkscape:version="1.0.2 (e86c870879, 2021-01-15)"><metadata
     id="metadata8"><rdf:RDF><cc:Work
         rdf:about=""><dc:format>image/svg+xml</dc:format><dc:type
           rdf:resource="http://purl.org/dc/dcmitype/StillImage" /><dc:title></dc:title></cc:Work></rdf:RDF></metadata><defs
     id="defs6" /><sodipodi:namedview
     pagecolor="#ffffff"
     bordercolor="#666666"
     borderopacity="1"
     objecttolerance="10"
     gridtolerance="10"
     guidetolerance="10"
     inkscape:pageopacity="0"
     inkscape:pageshadow="2"
     inkscape:window-width="640"
     inkscape:window-height="480"
     id="namedview4"
     showgrid="false"
     inkscape:zoom="2.9335285"
     inkscape:cx="149.72222"
     inkscape:cy="48.309504"
     inkscape:current-layer="g10" /><g
     id="g10"
     inkscape:groupmode="layer"
     inkscape:label="ink_ext_XXXXXX"
     transform="matrix(1.3333333,0,0,-1.3333333,0,64.253333)"><g
       id="g12"
       transform="scale(0.1)"
       style="fill:#000000;fill-opacity:1"><path
         d="m 34.8945,262.363 -0.1601,-21.367 v -6.66 l 0.1601,-4.871 c -0.1601,-3.574 0.543,-4.309 3.7188,-4.309 11.4844,0 18.1836,1.438 22.2656,4.688 4.9414,4.121 7.9766,10.781 7.9766,17.793 0,10.051 -5.5039,17.812 -14.1485,20.144 -3.5742,0.918 -8.5078,1.274 -15.1953,1.274 -3.8984,0 -4.6172,-0.356 -4.6172,-2.903 z m -0.1601,-59.558 c 0,-9.414 0.1601,-25.469 0.3242,-31.418 0.1953,-4.336 1.6016,-5.789 7.4609,-7.176 3.875,-0.898 4.5821,-1.484 4.5821,-4.223 v -3.457 c 0,-2.168 -0.5586,-2.918 -2.2969,-2.918 -1.25,0 -4.0625,0.196 -7.0625,0.352 -3.3672,0.195 -8.3164,0.398 -13.7969,0.398 -6.5351,0 -10.957,-0.203 -14.40624,-0.398 -3.00781,-0.156 -5.99218,-0.352 -7.0664,-0.352 C 0.546875,153.613 0,154.363 0,156.531 v 3.457 c 0,2.739 0.722656,3.325 4.79688,4.223 5.73832,1.387 7.12892,2.84 7.29292,7.176 0.1836,7.031 0.3516,20.215 0.3516,31.418 v 29.207 c 0,11.172 -0.168,24.074 -0.3516,31.269 -0.164,4.5 -1.5546,5.774 -7.29292,7.227 C 0.722656,271.426 0,271.926 0,274.648 v 3.582 c 0,2.161 0.546875,2.915 2.14063,2.915 1.74609,0 4.39062,-0.188 7.39843,-0.372 3.09764,-0.168 7.17184,-0.382 12.80474,-0.382 8.8476,0 8.8476,0 25.2929,0.566 3.4961,0.188 6.711,0.188 9.5313,0.188 12.3828,0 20.7031,-2.727 26.6875,-9.036 5.4687,-5.625 8.8476,-13.886 8.8476,-22.004 0,-13.789 -8.4843,-26.621 -20.3203,-29.824 -3.9062,-1.101 -4.2461,-1.265 -4.2461,-2.183 0,-0.188 0.1914,-0.539 0.7188,-1.086 1.2031,-2.141 2.2656,-3.946 2.8164,-5.598 3.7187,-8.476 15.75,-29.578 21.9336,-38.023 4.8515,-6.875 7.1175,-8.828 12.4295,-10.078 3.379,-0.918 3.543,-1.125 3.543,-4.094 v -3.086 c 0,-1.602 -1.082,-2.52 -2.848,-2.52 h -1.386 c -3.906,0.196 -10.1799,0.352 -14.426,0.352 -2.6485,0 -6.3399,-0.156 -10.5742,-0.352 H 77.5 c -3.3398,0 -3.3398,0 -7.6055,10.95 -1.5664,3.972 -13.6054,29.722 -19.9609,43.085 -2.9922,6.493 -3.7344,7.04 -7.9531,7.04 h -1.2383 c -0.7149,-0.184 -1.2305,-0.184 -1.2305,-0.184 l -2.8515,0.184 c -1.0469,0 -1.9258,-1.25 -1.9258,-3.274 v -8.609"
         style="fill:#000000;fill-opacity:1;fill-rule:nonzero;stroke:none"
         id="path14" /><path
         d="m 171.266,189.98 c 0,2.723 -0.188,3.223 -1.438,3.223 -0.351,0 -0.711,0 -1.238,-0.168 l -1.942,-0.332 c -9.734,-2 -12.878,-2.918 -16.597,-5.074 -5.117,-2.902 -7.446,-6.66 -7.446,-11.566 0,-6.09 4.067,-10.118 10.098,-10.118 5.117,0 11.125,2.754 15.035,6.711 2.629,2.891 3.528,5.762 3.528,12.239 z m -43.485,43.79 c 0.532,4.875 1.77,6.335 7.231,7.793 6.211,1.433 16.101,2.683 22.808,2.683 22.625,0 32.957,-8.094 32.957,-25.601 l -0.527,-33.184 c 0,-18.059 0,-18.195 2.117,-20.219 1.594,-1.226 3.352,-1.765 7.617,-2.144 3.536,-0.371 4.582,-0.91 4.582,-3.11 v -2.722 c 0,-2 -0.527,-2.356 -3.711,-3.106 l -20.949,-3.601 c -1.043,-0.168 -2.461,-0.356 -3.886,-0.356 -1.758,0 -2.821,0.754 -3.172,2.727 -0.528,1.23 -1.055,5.793 -0.871,7.058 0,3.325 -0.372,4.758 -1.258,4.758 -0.176,0 -0.696,-0.371 -1.242,-0.73 -1.043,-1.078 -8.293,-6.235 -10.754,-7.7 -4.778,-2.871 -11.321,-4.656 -17.5,-4.656 -11.145,0 -19.985,9.817 -19.985,22.649 0,6.113 1.953,13.836 4.426,17.644 1.414,1.973 1.582,2.168 10.945,3.977 l 23.332,4.656 c 10.082,2.219 11.325,3.105 11.325,8.523 v 3.039 c 0,12.286 -4.618,16.961 -16.442,16.961 -7.617,0 -17.683,-2.871 -24.402,-6.843 -1.43,-0.95 -2.109,-1.106 -2.641,-1.106 -0.867,0 -1.25,0.727 -1.25,2.16 v 1.114 l 1.25,9.336"
         style="fill:#000000;fill-opacity:1;fill-rule:nonzero;stroke:none"
         id="path16" /><path
         d="m 232.32,200.449 c 0,-19.812 8.496,-33.75 20.848,-33.75 12.746,0 18.937,10.637 18.937,32.266 0,11.183 -1.242,18.594 -3.898,23.652 -3.152,5.574 -8.672,9.031 -14.852,9.031 -12.382,0 -21.035,-12.839 -21.035,-31.199 z m 55.41,89.336 c 0.879,0.188 1.758,0.188 2.137,0.188 1.574,0 2.461,-1.086 2.461,-3.254 l -1.25,-55.071 v -32.136 c 0,-23.449 0.168,-29.356 1.418,-31.731 1.582,-3.406 2.84,-4.121 10.43,-4.843 1.59,0 2.469,-0.75 2.469,-2 v -3.321 c 0,-1.816 -0.536,-2.351 -3.7,-2.922 l -22.804,-4.492 c -1.414,-0.164 -2.469,-0.379 -3.184,-0.379 -1.375,0 -1.855,0.918 -2.012,3.274 l -0.547,7.625 c -0.351,4.336 -0.351,4.519 -1.562,4.519 -0.184,0 -0.898,-0.347 -1.621,-1.031 -1.406,-1.484 -6.18,-5.141 -9.375,-7.512 -5.281,-3.601 -9.871,-5.039 -15.703,-5.039 -19.461,0 -33.418,17.942 -33.418,43.352 0,29.226 16.621,49.234 40.664,49.234 4.777,0 14.14,-1.949 16.426,-3.418 0.507,-0.515 1.054,-0.723 1.222,-0.723 0.703,0 1.434,1.458 1.434,2.891 0,0.188 0,0.188 -0.184,3.227 l -0.168,19.226 c 0,9.364 -0.535,10.117 -8.308,11.387 -3.36,0.332 -4.055,0.852 -4.055,3.418 v 3.391 c 0,1.835 0.695,2.371 3.535,2.722 l 25.695,3.418"
         style="fill:#000000;fill-opacity:1;fill-rule:nonzero;stroke:none"
         id="path18" /><path
         d="m 347.289,215.422 c -1.961,-4.926 -2.82,-12.082 -2.82,-23.469 0,-13.906 0.515,-18.762 1.953,-21.98 1.941,-3.813 7.734,-6.875 13.23,-6.875 13.703,0 23.938,14.8 23.938,34.832 0,18.894 -7.766,31.347 -19.59,31.347 -6.797,0 -13.516,-5.39 -16.711,-13.855 z m -22.449,18.543 c 0,15.41 -0.156,33.437 -0.508,36.726 -0.363,4.122 -2.305,5.747 -7.266,6.313 -4.406,0.332 -5.48,1.031 -5.48,3.25 v 3.039 c 0,1.641 0.723,2.187 3.008,2.508 l 25.793,3.789 3.379,0.547 c 1.218,0 2.109,-1.25 2.109,-3.035 0,-0.571 0,-1.457 -0.176,-2.524 -0.187,-4.539 -0.371,-9.765 -0.527,-24.351 0,-11.184 -0.188,-19.602 -0.344,-24.789 l -0.164,-3.102 v -1.223 c 0,-0.73 0.32,-1.101 0.848,-1.101 0.91,0 3.019,2 7.082,6.304 5.652,6.145 10.027,7.93 18.652,7.93 20.32,0 33.192,-16.055 33.192,-41.824 0,-30.313 -19.071,-50.762 -47.235,-50.762 -9.551,0 -22.277,3.25 -29.894,7.727 -2.286,1.336 -3.164,2.801 -3.164,5.855 v 2.024 c 0.351,15.488 0.539,34.453 0.695,56.789 v 9.91"
         style="fill:#000000;fill-opacity:1;fill-rule:nonzero;stroke:none"
         id="path20" /><path
         d="m 439.727,199.133 c 0,-19.414 10.246,-33.703 24.328,-33.703 12.539,0 22.254,13.34 22.254,30.691 0,20.356 -9.903,34.809 -23.875,34.809 -13.137,0 -22.707,-13.371 -22.707,-31.797 z m 61.23,26.375 c 4.102,-7.219 6.367,-16.043 6.367,-25.242 0,-12.453 -4.043,-24.719 -11.133,-33.403 -8.125,-9.976 -20.136,-15.203 -35.332,-15.203 -25.511,0 -41.976,17.039 -41.976,43.914 0,14.055 4.597,26.692 12.91,35.539 8.297,8.992 18.512,13.133 32.262,13.133 16.773,0 30.008,-6.656 36.902,-18.738"
         style="fill:#000000;fill-opacity:1;fill-rule:nonzero;stroke:none"
         id="path22" /><path
         d="m 605.344,200.449 c 0.176,-16.972 0.34,-26.875 0.711,-29.98 0.691,-4.871 2.453,-6.094 9.148,-6.992 2.856,-0.379 3.371,-0.918 3.371,-3.106 v -2.402 c 0,-2.168 -0.515,-2.703 -3.008,-3.059 l -24.011,-3.25 c -1.25,-0.183 -2.297,-0.371 -2.473,-0.371 -2.129,0 -2.129,0 -3.391,12.371 -0.156,2.688 -0.679,3.938 -1.726,3.938 -0.527,0 -1.426,-0.547 -3.731,-2.852 -12.011,-11.133 -15.554,-13.086 -25.097,-13.086 -6.707,0 -13.606,1.785 -18.274,4.871 -5.664,3.457 -8.133,9.629 -8.133,19.532 0,1.437 0,4.574 0.165,7.777 v 9.363 15.906 c 0,21.086 -0.528,22.707 -7.618,23.391 -4.05,0.352 -4.91,0.918 -4.91,2.938 v 3.039 c 0,2.148 0.488,2.519 2.996,2.902 l 26.035,2.488 c 1.809,0.188 3.032,0.379 3.188,0.379 1.258,0 1.785,-0.711 1.785,-2.144 0,-0.891 0,-2.356 -0.176,-3.997 -0.703,-8.449 -1.062,-20.007 -1.062,-28.64 v -14.106 c 0,-16.394 0.359,-19.097 3.172,-23.086 2.136,-3.054 5.996,-4.675 10.965,-4.675 8.3,0 15.746,3.972 18.918,10.117 2.292,4.121 2.824,8.664 2.824,22.734 v 8.828 c 0,6.844 -0.364,16.426 -0.715,18.211 -0.692,3.242 -2.461,4.707 -6.914,5.227 -4.043,0.351 -4.922,0.89 -4.922,2.723 v 3.207 c 0,1.98 0.527,2.566 3,2.734 l 25.445,2.676 c 1.047,0.191 2.121,0.191 2.864,0.191 1.75,0 2.285,-0.547 2.285,-2.144 l -0.196,-4.68 c -0.175,-4.707 -0.175,-4.707 -0.339,-12.637 -0.176,-3.254 -0.176,-7.226 -0.176,-11.719 v -12.617"
         style="fill:#000000;fill-opacity:1;fill-rule:nonzero;stroke:none"
         id="path24" /><path
         d="m 649.297,200.449 c 0,-19.812 8.476,-33.75 20.848,-33.75 12.738,0 18.902,10.637 18.902,32.266 0,11.183 -1.25,18.594 -3.871,23.652 -3.184,5.574 -8.653,9.031 -14.856,9.031 -12.382,0 -21.023,-12.839 -21.023,-31.199 z m 55.492,89.336 c 0.859,0.188 1.77,0.188 2.121,0.188 1.59,0 2.469,-1.086 2.469,-3.254 l -1.238,-55.071 v -32.136 c 0,-23.449 0.195,-29.356 1.414,-31.731 1.593,-3.406 2.832,-4.121 10.312,-4.843 1.613,0 2.492,-0.75 2.492,-2 v -3.321 c 0,-1.816 -0.527,-2.351 -3.691,-2.922 l -22.715,-4.492 c -1.437,-0.164 -2.5,-0.379 -3.176,-0.379 -1.445,0 -1.953,0.918 -2.129,3.274 l -0.515,7.625 c -0.383,4.336 -0.383,4.519 -1.621,4.519 -0.168,0 -0.871,-0.347 -1.578,-1.031 -1.387,-1.484 -6.18,-5.141 -9.368,-7.512 -5.3,-3.601 -9.898,-5.039 -15.742,-5.039 -19.422,0 -33.394,17.942 -33.394,43.352 0,29.226 16.609,49.234 40.64,49.234 4.809,0 14.153,-1.949 16.477,-3.418 0.508,-0.515 1.035,-0.723 1.199,-0.723 0.703,0 1.434,1.458 1.434,2.891 0,0.188 0,0.188 -0.188,3.227 l -0.195,19.226 c 0,9.364 -0.524,10.117 -8.277,11.387 -3.375,0.332 -4.071,0.852 -4.071,3.418 v 3.391 c 0,1.835 0.696,2.371 3.535,2.722 l 25.805,3.418"
         style="fill:#000000;fill-opacity:1;fill-rule:nonzero;stroke:none"
         id="path26" /><path
         d="m 789.535,232.012 c 0,11.172 -0.164,24.074 -0.351,31.269 -0.176,4.5 -1.602,5.774 -7.411,7.227 -4.093,0.918 -4.804,1.418 -4.804,4.14 v 3.582 c 0,2.161 0.547,2.915 2.312,2.915 1.055,0 4.231,-0.188 7.266,-0.372 3.34,-0.168 8.301,-0.382 13.769,-0.382 6.438,0 10.872,0.214 14.407,0.382 2.996,0.184 6.015,0.372 7.07,0.372 1.758,0 2.273,-0.754 2.273,-2.915 v -3.582 c 0,-2.722 -0.703,-3.222 -4.589,-4.14 -6.004,-1.453 -7.235,-2.727 -7.411,-7.227 -0.187,-5.945 -0.363,-21.902 -0.363,-31.269 v -19.114 c 0,-20.73 0.899,-28.875 4.074,-34.644 4.766,-8.652 14.688,-13.691 27.051,-13.691 14.813,0 25.262,6.089 29.149,17.109 2.304,6.844 2.461,9.578 2.461,32.098 v 18.242 c 0,10.652 -0.157,24.426 -0.34,31.269 -0.176,4.5 -1.418,5.774 -7.403,7.227 -4.082,0.918 -4.785,1.418 -4.785,4.14 v 3.582 c 0,2.161 0.535,2.915 2.293,2.915 1.231,0 4.231,-0.188 7.266,-0.372 3.34,-0.168 6.875,-0.382 10.051,-0.382 3.906,0 7.089,0.214 10.507,0.382 2.996,0.184 6.024,0.372 7.246,0.372 1.766,0 2.286,-0.754 2.286,-2.915 v -3.582 c 0,-2.722 -0.696,-3.222 -4.778,-4.14 -5.965,-1.453 -7.129,-2.727 -7.293,-7.227 -0.187,-6.14 -0.351,-21.367 -0.351,-31.269 v -17.508 c 0,-21.301 -0.383,-26.691 -1.77,-32.832 -4.609,-19.848 -21.375,-30.012 -49.5,-30.012 -21.738,0 -37.031,7.063 -43.554,19.91 -3.743,7.578 -4.778,16.059 -4.778,42.2 v 18.242"
         style="fill:#000000;fill-opacity:1;fill-rule:nonzero;stroke:none"
         id="path28" /><path
         d="m 907.445,237.234 c 0,2.707 0.344,3.246 2.637,3.594 l 25.098,3.039 c 1.582,0.188 2.824,0.379 3.019,0.379 1.406,0 2.266,-1.25 2.469,-3.418 0.168,-1.453 0.52,-9.898 0.52,-10.816 0.195,-2.168 0.859,-3.774 1.765,-3.774 0.547,0 1.262,0.52 1.953,1.25 l 1.77,1.977 3.367,3.387 c 8.469,9.25 12.887,11.394 23.141,11.394 12.636,0 21.992,-4.871 25.339,-13.316 1.787,-4.336 1.787,-4.336 1.787,-30.664 v -5.981 c 0,-10.808 0.16,-21.094 0.35,-24.683 0.36,-3.821 1.4,-4.856 6.72,-6.504 5.29,-1.621 5.46,-1.809 5.46,-4.184 v -2.945 c 0,-1.809 -0.53,-2.356 -1.92,-2.356 h -1.27 c -4.58,0.352 -12.892,0.547 -19.435,0.547 -6.692,0 -14.902,-0.195 -19.531,-0.547 h -1.219 c -1.418,0 -1.953,0.75 -1.953,2.356 v 2.945 c 0,2.375 0.191,2.563 5.496,4.184 5.293,1.648 6.301,2.683 6.633,6.504 0.164,4.136 0.347,14.07 0.347,24.683 v 5.981 c 0,11.336 -0.484,16.211 -1.851,20.015 -1.953,4.875 -6.731,7.563 -13.274,7.563 -7.222,0 -13.929,-3.41 -18.023,-9.199 -2.969,-4.141 -3.711,-8.149 -3.711,-19.68 v -4.68 c 0,-11.18 0.195,-20.547 0.371,-24.683 0.371,-3.821 1.406,-4.856 6.543,-6.504 5.293,-1.809 5.469,-1.809 5.469,-4.184 v -2.945 c 0,-1.606 -0.528,-2.356 -1.953,-2.356 h -1.239 c -4.609,0.352 -12.539,0.547 -19.257,0.547 -6.719,0 -15.391,-0.195 -19.629,-0.547 h -1.243 c -1.394,0 -1.921,0.75 -1.921,2.356 v 2.945 c 0,2.375 0.164,2.563 5.476,4.184 5.305,1.648 6.348,2.683 6.719,6.504 0.168,3.789 0.344,13.503 0.344,24.683 v 6.301 c 0,8.879 -1.055,22.898 -2.129,26.172 -0.879,3.086 -2.657,4.172 -8.125,4.519 -4.25,0.371 -5.11,0.735 -5.11,2.328 v 3.629"
         style="fill:#000000;fill-opacity:1;fill-rule:nonzero;stroke:none"
         id="path30" /><path
         d="m 1061.81,270.508 c 0,-7.41 -6.18,-13.367 -13.98,-13.367 -7.59,0 -13.76,5.789 -13.76,13.203 0,7.691 5.81,12.949 14.47,12.949 7.8,0 13.27,-5.258 13.27,-12.785 z m -22.09,-61.399 c 0,21.274 -0.35,22.539 -7.62,23.391 -4.06,0.352 -4.93,0.918 -4.93,2.734 v 3.243 c 0,2.003 0.54,2.519 3,2.734 l 25.27,2.656 1.44,0.188 c 0.49,0.191 1.03,0.191 1.4,0.191 1.57,0 2.27,-1.25 2.27,-3.418 0,-0.348 0,-0.348 -0.15,-7.058 -0.19,-3.04 -0.36,-20.547 -0.36,-30.43 v -9.055 c 0,-10.808 0.17,-20.359 0.36,-24.683 0.35,-3.821 1.41,-4.856 6.47,-6.504 5.25,-1.621 5.43,-1.809 5.43,-4.184 v -2.945 c 0,-1.606 -0.51,-2.356 -1.93,-2.356 h -1.22 c -4.52,0.352 -12.44,0.547 -19.17,0.547 -6.74,0 -15.2,-0.195 -19.64,-0.547 h -1.25 c -1.58,0 -1.92,0.547 -1.92,2.356 v 2.945 c 0,2.375 0,2.375 5.47,4.184 5.47,1.797 6.36,2.683 6.73,6.504 0.16,4.707 0.35,12.957 0.35,24.683 v 14.824"
         style="fill:#000000;fill-opacity:1;fill-rule:nonzero;stroke:none"
         id="path32" /><path
         d="m 1168.81,238.645 c 0,-2.493 0,-2.493 -3.39,-3.411 -2.29,-1.086 -3.37,-2.734 -6.36,-10.449 -1.94,-5.039 -1.94,-5.039 -17.05,-42.578 -5.63,-14.043 -6.89,-17.312 -8.11,-20.73 -1.62,-4.211 -1.62,-4.426 -2.32,-5.508 -0.54,-0.891 -1.26,-1.274 -3.71,-1.606 -1.59,-0.203 -2.1,-0.203 -8.3,-1.265 -0.7,-0.168 -1.41,-0.168 -1.95,-0.168 -1.78,0 -1.97,0.168 -3.89,5.984 -2.28,6.145 -3.89,10.141 -12.02,32.688 -8.49,23.269 -12.01,32.453 -15.03,39.511 -1.22,3.035 -1.58,3.223 -5.65,4.688 -1.05,0.351 -1.59,1.433 -1.59,2.844 v 3.269 c 0,1.785 0.72,2.332 2.99,2.332 0.56,0 0.56,0 8.69,-0.379 1.93,-0.168 5.13,-0.168 9.34,-0.168 8.33,0 13.47,0.168 18.76,0.547 h 2.09 c 1.81,0 2.5,-0.547 2.5,-2.332 v -3.269 c 0,-2.329 -0.17,-2.329 -4.94,-3.579 -5.14,-1.296 -7.09,-2.566 -7.09,-5.054 0,-0.903 0.19,-2.168 0.73,-3.586 0.87,-2.754 1.76,-5.41 2.46,-8.137 l 4.41,-14.234 c 5.48,-18.059 9.19,-29.426 9.55,-29.426 0.17,0 0.34,0.918 0.69,1.98 l 0.7,2.539 1.62,4.875 c 0.88,2.918 2.11,6.329 3.18,10.262 l 5.13,14.094 c 5.46,15.676 6.88,20.547 6.88,22.551 0,2.136 -2.82,4.136 -7.23,5.054 -2.13,0.539 -2.64,1.055 -2.64,2.661 v 3.269 c 0,1.621 0.69,2.332 2.08,2.332 0.56,0 1.08,0 1.98,-0.191 2.12,-0.188 9.36,-0.356 12.91,-0.356 3.21,0 7.3,0.168 11.02,0.547 h 1.58 c 1.42,0 1.98,-0.547 1.98,-2.332 v -3.269"
         style="fill:#000000;fill-opacity:1;fill-rule:nonzero;stroke:none"
         id="path34" /><path
         d="m 1204.31,213.438 8.11,0.703 c 3.2,0.195 11.85,0.918 15.04,1.433 2.64,0.199 3.71,1.25 3.71,3.606 0,3.254 -1.23,7.246 -3.37,10.097 -2.12,2.918 -5.66,4.493 -10.41,4.493 -5.67,0 -11.32,-2.657 -14.49,-6.844 -2.84,-3.442 -4.94,-8.637 -4.94,-11.699 0,-1.457 0.68,-2.004 2.45,-2.004 z m -3,-8.868 c -6.56,0 -7.27,-0.515 -7.27,-6.64 0,-17.508 11.14,-30.332 26.35,-30.332 8.82,0 21.54,4.355 27.29,9.199 0.36,0.383 0.54,0.539 0.71,0.539 0.53,0 1.06,-0.727 1.06,-1.594 0,-2.715 -1.59,-14.637 -1.95,-15.906 -0.52,-0.922 -2.47,-2.055 -7.34,-4.035 -6.39,-2.512 -14.82,-4.141 -22.25,-4.141 -25.81,0 -43.66,17.742 -43.66,43.699 0,27.961 18.92,48.887 44.56,48.887 20.85,0 32.22,-11.91 32.22,-33.379 0,-4.844 -1.93,-6.297 -8.6,-6.297 h -41.12"
         style="fill:#000000;fill-opacity:1;fill-rule:nonzero;stroke:none"
         id="path36" /><path
         d="m 1265.69,236.316 c 0,2.707 0.53,3.247 3.17,3.625 l 26.02,3.926 1.41,0.188 c 0.71,0.191 1.2,0.191 1.41,0.191 1.22,0 2.11,-1.25 2.11,-3.035 l -0.17,-7.981 c 0,-7.722 0.17,-8.992 1.59,-8.992 0.53,0 2.12,1.27 3.35,2.871 2.66,3.086 2.66,3.086 6.88,7.957 4.95,5.559 6.71,6.848 11.83,8.118 2.64,0.683 5.32,1.062 8.43,1.062 4.52,0 6.5,-1.25 6.32,-3.933 v -0.372 l -0.7,-12.636 c -0.2,-3.25 -0.88,-4.5 -2.48,-4.5 -0.35,0 -0.88,0.164 -1.57,0.332 -2.1,0.75 -6.12,1.101 -10.18,1.101 -6.53,0 -11.65,-1.804 -15.01,-5.058 -4.05,-4.121 -4.75,-7.766 -4.75,-25.606 v -8.113 l 0.35,-11.535 c 0.18,-5.93 0.53,-7.41 3,-8.684 1.4,-0.679 1.59,-0.679 9.22,-2.515 5.43,-1.25 5.61,-1.25 5.61,-3.657 v -2.539 c 0,-1.836 -0.89,-2.918 -2.31,-2.918 h -0.89 c -5.1,0.196 -19.25,0.547 -26.28,0.547 -5.68,0 -13.97,-0.195 -18.38,-0.547 h -1.24 c -1.41,0 -1.98,0.75 -1.98,2.356 v 2.945 c 0,2.375 0,2.375 5.51,4.184 5.47,1.797 6.37,2.683 6.72,6.504 0.19,4.492 0.34,12.769 0.34,24.683 v 5.981 c 0,9.011 -1.2,19.265 -3.04,24.168 -1.56,4.492 -4.19,6.113 -9.85,6.296 -3.91,0.2 -4.44,0.547 -4.44,2.5 v 3.086"
         style="fill:#000000;fill-opacity:1;fill-rule:nonzero;stroke:none"
         id="path38" /><path
         d="m 1409.97,225.703 c -0.2,-2.898 -0.55,-3.269 -2.49,-3.269 h -2.85 c -1.75,0 -1.75,0 -3.49,4.675 -1.97,4.707 -7.44,7.414 -15.22,7.414 -8.47,0 -14.15,-4.679 -14.15,-11.718 0,-4.895 2.47,-8.117 9.37,-12.121 4.08,-2.305 4.08,-2.305 15.9,-7.746 11.48,-5.223 18.21,-14.04 18.21,-23.973 0,-16.406 -14.68,-27.305 -36.92,-27.305 -8.5,0 -17.36,1.785 -23.17,4.871 -2.48,1.086 -3.01,2.192 -2.83,4.946 l 1.09,12.261 c 0.18,2.16 1.06,3.059 2.98,3.059 h 3.02 c 1.94,0 2.12,0 3.17,-4.688 1.6,-6.164 9.37,-10.82 17.66,-10.82 9.03,0 15.42,4.871 15.42,11.902 0,5.422 -2.87,8.313 -12.58,12.805 -22.97,10.645 -28.61,16.809 -28.61,30.125 0,17.649 13.08,28.125 34.96,28.125 6.72,0 13.98,-1.25 18.22,-3.035 2.83,-1.106 3.54,-2 3.54,-4.172 v -0.516 l -1.23,-10.82"
         style="fill:#000000;fill-opacity:1;fill-rule:nonzero;stroke:none"
         id="path40" /><path
         d="m 1465.59,270.508 c 0,-7.41 -6.21,-13.367 -13.98,-13.367 -7.6,0 -13.76,5.789 -13.76,13.203 0,7.691 5.81,12.949 14.46,12.949 7.79,0 13.28,-5.258 13.28,-12.785 z m -22.11,-61.399 c 0,21.274 -0.35,22.539 -7.58,23.391 -4.08,0.352 -4.95,0.918 -4.95,2.734 v 3.243 c 0,2.003 0.51,2.519 2.98,2.734 l 25.27,2.656 1.45,0.188 c 0.53,0.191 1.05,0.191 1.41,0.191 1.58,0 2.3,-1.25 2.3,-3.418 0,-0.348 0,-0.348 -0.17,-7.058 -0.2,-3.04 -0.38,-20.547 -0.38,-30.43 v -9.055 c 0,-10.808 0.18,-20.359 0.38,-24.683 0.35,-3.821 1.4,-4.856 6.52,-6.504 5.3,-1.621 5.44,-1.809 5.44,-4.184 v -2.945 c 0,-1.606 -0.51,-2.356 -1.89,-2.356 h -1.27 c -4.59,0.352 -12.52,0.547 -19.26,0.547 -6.71,0 -15.18,-0.195 -19.59,-0.547 h -1.27 c -1.59,0 -1.92,0.547 -1.92,2.356 v 2.945 c 0,2.375 0,2.375 5.46,4.184 5.49,1.797 6.37,2.683 6.72,6.504 0.18,4.707 0.35,12.957 0.35,24.683 v 14.824"
         style="fill:#000000;fill-opacity:1;fill-rule:nonzero;stroke:none"
         id="path42" /><path
         d="m 1501.8,218.289 c -0.17,10.473 -0.17,10.637 -4.41,10.637 -0.7,0 -0.7,0 -3.18,-0.164 h -4.6 c -1.41,-0.188 -2.46,-0.188 -2.63,-0.188 -1.09,0 -1.77,0.535 -1.77,1.082 0,0.356 0.17,1.274 0.68,2.356 l 2.12,5.949 c 1.44,3.953 1.79,4.336 3.53,4.336 0.56,0 2.14,-0.195 4.26,-0.383 0.71,-0.168 1.43,-0.168 2.11,-0.168 3.19,0 4.42,1.086 4.42,3.774 0,0.886 -0.18,6.589 -0.53,11.816 -0.17,2.891 -0.17,5.594 -0.17,7.574 0,3.945 1.05,5.434 4.9,6.848 l 11.11,3.972 c 3.52,1.274 3.52,1.274 4.02,1.274 1.08,0 1.78,-1.274 1.78,-2.707 0,-1.106 -0.15,-3.086 -0.53,-5.242 -0.52,-4.504 -1.75,-19.68 -1.75,-23 0,-3.223 0.86,-3.758 6,-3.758 h 14.49 c 4.23,0 6.55,0.164 9.18,0.535 h 1.05 c 0.92,0 1.43,-0.535 1.43,-1.453 0,-1.066 -0.51,-2.902 -2.09,-8.313 -1.1,-3.789 -1.99,-4.492 -4.81,-4.492 -0.7,0 -0.7,0 -5.29,0.352 -1.24,0 -3.36,0.183 -6.71,0.351 -3.92,0.188 -5.13,0.188 -6.71,0.188 -5.68,0 -5.68,0 -5.68,-7.766 v -27.773 c 0,-14.422 0.37,-19.082 2.13,-22.539 1.61,-3.391 5.13,-5.227 10.61,-5.227 3.89,0 8.15,0.703 14.31,2.375 1.43,0.352 2.28,0.52 2.63,0.52 0.92,0 1.25,-0.52 1.25,-1.457 0,-2.539 -1.42,-11.067 -1.92,-11.797 -1.62,-1.836 -13.8,-4.141 -22.09,-4.141 -20.13,0 -27.67,5.957 -27.67,21.531 l 0.2,10.649 c 0.16,4.305 0.33,7.762 0.33,10.086 v 24.363"
         style="fill:#000000;fill-opacity:1;fill-rule:nonzero;stroke:none"
         id="path44" /><path
         d="m 1655.12,239.023 c 0,-1.789 -0.38,-2.148 -1.94,-2.871 -3.73,-1.816 -4.1,-2.382 -8.16,-13.015 -1.59,-4.692 -3.36,-8.996 -5.13,-13.324 l -9.55,-23.985 c -3.71,-9.414 -7.23,-18.777 -10.94,-28.394 -8.65,-23.118 -9.53,-25.254 -14.3,-30.481 -4.09,-4.707 -11.59,-7.961 -18.64,-7.961 -14.15,0 -15.91,1.086 -15.91,10.102 0,1.836 0,3.25 0.18,4.168 l 0.17,3.269 c 0,1.953 0.53,2.657 1.74,2.657 0.57,0 0.92,0 1.41,-0.165 4.98,-1.457 9.03,-1.972 13.8,-1.972 9.49,0 15.98,5.058 18.63,14.773 0.38,1.274 0.73,2.336 1.24,3.086 0,0.168 0.19,0.356 0.19,0.356 0,0.347 -0.53,0.703 -1.05,1.05 -2.11,1.118 -2.3,1.465 -7.05,13.286 -5.94,14.421 -11.96,28.679 -17.97,42.918 -2.11,5.039 -4.77,11.367 -7.4,17.492 -1.97,4.324 -2.66,4.871 -6.74,6.14 -1.21,0.371 -1.58,0.887 -1.58,2.871 v 3.079 c 0,1.433 0.72,2.144 2.15,2.144 h 1.23 c 1.58,-0.191 17.46,-0.547 20.85,-0.547 4.69,0 13.13,0.168 16.13,0.547 h 1.6 c 1.59,0 2.47,-0.867 2.47,-2.144 v -3.079 c 0,-2.5 0,-2.5 -6.54,-4.14 -3.7,-0.918 -5.65,-2.871 -5.65,-5.227 0,-1.082 0.37,-2.547 1.1,-4.148 1.02,-2.891 2.08,-5.762 2.97,-8.867 l 5.65,-14.754 2.84,-7.231 c 1.21,-3.242 3.36,-8.66 4.77,-12.449 1.05,-3.059 1.41,-3.789 1.78,-3.789 1.05,0 16.26,48.691 16.26,52.129 0,2.519 -1.79,4.172 -5.13,4.891 -4.26,0.878 -4.61,1.085 -4.61,3.585 v 3.079 c 0,1.597 0.55,2.144 1.93,2.144 h 1.62 c 3.68,-0.379 8.28,-0.547 13.06,-0.547 3.89,0 7.46,0.168 10.45,0.356 0.67,0.191 1.42,0.191 1.74,0.191 1.59,0 2.33,-0.711 2.33,-2.144 v -3.079"
         style="fill:#000000;fill-opacity:1;fill-rule:nonzero;stroke:none"
         id="path46" /><path
         d="m 1781.46,186.516 c -0.78,-3.926 -5.65,-9.219 -11.37,-9.817 -8.04,-0.195 -14.76,6.406 -15.16,11.953 -0.31,5.254 0.06,6.602 0.06,6.602 l 27.04,-0.899 c -0.07,-2.976 0.18,-4.492 -0.57,-7.839 z m 3.63,17.976 -1.02,-2.363 -29.45,0.793 -1.96,2.469 -1.94,-0.039 v -18.055 c -0.43,-8.242 7.96,-18.242 19.22,-18.203 10.53,0.562 15.65,10.535 16.35,19.812 l 1.14,15.625 -2.34,-0.039"
         style="fill:#000000;fill-opacity:1;fill-rule:nonzero;stroke:none"
         id="path48" /><path
         d="m 1763.08,119.102 5.74,-11.485 1.25,0.723 -0.65,3.027 26.97,11.922 1.39,-1.687 2.32,1.113 -5.01,10.32 -1.61,-0.722 0.04,-3.172 -26.48,-11.575 -2.33,1.77 -1.63,-0.234"
         style="fill:#000000;fill-opacity:1;fill-rule:nonzero;stroke:none"
         id="path50" /><path
         d="m 1771.84,131.172 v -1.27 l -7.71,-1.589 c -4.37,2.976 -6.43,6.121 -7.72,11.277 -2.52,10.027 0,19.355 13.11,23.008 13.79,4.304 19.52,-4.649 22.49,-15.086 0.85,-3.078 0.9,-5.305 1.41,-8.657 l -7.3,-2.031 -1,1.489 c 2.87,2.585 3.78,6.453 2.83,10.156 -1.41,5.672 -7.94,8.902 -13.28,6.746 l 3.86,-16.731 2.97,-1.226 0.53,-1.613 -7.81,-2 -0.49,1.621 1.13,1.746 -4.25,16.816 c -6.5,-0.383 -11.31,-7.082 -9.92,-13.43 0.92,-4.058 5.79,-8.668 11.15,-9.226"
         style="fill:#000000;fill-opacity:1;fill-rule:nonzero;stroke:none"
         id="path52" /><path
         d="m 1766.09,212.207 c -0.93,2.031 0,4.492 2.11,5.441 2.03,0.829 4.47,0.262 5.29,-1.503 1.07,-2.09 0,-4.497 -1.94,-5.969 -2.03,-0.918 -4.48,0 -5.46,2.031"
         style="fill:#000000;fill-opacity:1;fill-rule:nonzero;stroke:none"
         id="path54" /><path
         d="m 1789.2,105.188 c -0.94,2.097 -0.1,4.492 1.39,5.425 1.85,0.957 4.54,-0.015 6.1,-2.136 0.88,-2.032 -0.06,-4.539 -2.08,-5.372 -2.07,-0.976 -4.47,0.02 -5.41,2.083"
         style="fill:#000000;fill-opacity:1;fill-rule:nonzero;stroke:none"
         id="path56" /><path
         d="m 1993.41,26.3008 c -0.93,2.1055 0.08,4.4883 2.2,5.4297 2.17,0.9453 4.58,0 5.44,-2.0039 0.8,-2.0899 0.01,-4.5235 -2.1,-5.5391 -2.04,-0.9258 -4.47,0.0703 -5.54,2.1133"
         style="fill:#000000;fill-opacity:1;fill-rule:nonzero;stroke:none"
         id="path58" /><path
         d="m 1774.46,279.094 -5.87,-11.489 1.38,-0.476 2.46,2.101 26.04,-13.417 -0.52,-2.168 2.34,-0.93 4.72,10.078 -1.7,0.801 -2.39,-1.731 -24.92,13.371 -0.27,2.704 -1.27,1.156"
         style="fill:#000000;fill-opacity:1;fill-rule:nonzero;stroke:none"
         id="path60" /><path
         d="m 1790.66,228.645 -1.62,0.496 -1.55,-1.172 -19.49,4.179 27.88,10.606 2.55,6.434 -2.05,0.492 -1.88,-0.832 -26.22,10.449 -0.19,2.48 -1.9,0.606 -3.29,-9.043 2.4,-0.879 2.25,1.172 18.62,-7.266 -29.77,-11.445 -1.34,-4.473 31.13,-6.863 1.33,-1.477 1.15,-0.539 1.99,7.075"
         style="fill:#000000;fill-opacity:1;fill-rule:nonzero;stroke:none"
         id="path62" /><path
         d="m 1838.92,47.8984 c -1.14,-1.1601 -5.53,-5.3007 -10.04,-5.3984 -1.93,-0.0195 -3.64,0.5859 -5.23,2.1289 l -0.45,0.5078 c -1.5,1.086 -2.18,2.4219 -2.29,4.3672 -0.03,3.7774 3.19,8.8086 5.63,11.3867 2.01,2.0391 9.36,9.7617 15.15,4.5391 l 0.86,-0.7813 c 5.6,-5.5 -1.97,-15 -3.63,-16.75 z m 11.37,6.6797 v 0 c 0.26,4.9024 -0.73,9.1055 -3.92,12.3946 l -0.47,0.5468 -0.21,0.2149 -0.22,0.1367 -0.15,0.1562 -0.47,0.3711 c -3.48,3.0274 -7.7,4.0118 -12.62,3.4766 -5.22,-0.5352 -10.17,-3.2891 -13.36,-7.9492 -5.62,-7.0781 -5.56,-16.211 1.1,-22.8125 l 0.18,-0.1367 h -0.03 l -0.09,0.0703 0.12,-0.0703 c 7.13,-5.9375 16.34,-5.6446 23.24,0.0976 4.09,3.3985 6.59,8.3594 6.9,13.5039"
         style="fill:#000000;fill-opacity:1;fill-rule:nonzero;stroke:none"
         id="path64" /><path
         d="m 1892.72,5.50781 12.11,-2.66406 0.13,1.38672 -2.66,2 5.69,28.53513 2.71,0.1172 0.17,2.4805 -11.11,1.9844 -0.46,-1.8868 2.77,-2.0312 -5.61,-27.57032 -2.96,-0.82032 -0.78,-1.53125"
         style="fill:#000000;fill-opacity:1;fill-rule:nonzero;stroke:none"
         id="path66" /><path
         d="m 1985.04,18.6133 1.25,-0.0586 2.48,-7.5469 c -3.26,-4.19139 -6.28,-6.1953 -11.53,-7.31639 -10.17,-2.19922 -19.38,0.09765 -22.39,12.87109 -4.42,13.8984 4.51,19.4219 14.95,22.4688 3.19,0.9023 5.36,0.9296 8.78,1.3671 l 1.92,-7.5156 -1.5,-0.957 c -2.5,3.0351 -6.36,3.9805 -10.17,3.1797 -5.59,-1.4727 -9.11,-8.1133 -7.16,-13.5821 l 16.8,3.8282 1.37,3.039 1.65,0.4258 1.85,-7.8203 -1.72,-0.3828 -1.71,1.0742 -16.57,-3.9219 c 0.3,-6.3125 6.7,-11.05466 13.19,-9.73826 4.18,0.70313 8.89,5.26176 8.51,10.58596"
         style="fill:#000000;fill-opacity:1;fill-rule:nonzero;stroke:none"
         id="path68" /><path
         d="m 1823.42,87.8047 -1.33,-1.1172 0.21,-1.9805 -14.33,-14.5507 6.36,29.0625 -4.03,5.5472 -1.41,-1.375 -0.36,-2.082 -23.4,-16.2426 -2.25,1.1719 -1.42,-1.2383 6.03,-7.832 2.05,1.6601 0.23,2.4883 16.12,11.543 -6.58,-30.8946 3.12,-3.5273 22.81,22.6953 1.94,0.3594 1.05,0.6758 -4.81,5.6367"
         style="fill:#000000;fill-opacity:1;fill-rule:nonzero;stroke:none"
         id="path70" /><path
         d="m 1939.1,34.5508 -0.11,-1.7188 1.71,-1.1601 1.99,-20.0625 -18.83,24.1328 -6.51,0.6445 0.2,-1.9726 1.24,-1.6797 -2.26,-28.56252 -2.39,-1.09766 -0.02,-1.91406 9.44,-0.125 0.17,2.65625 -1.65,1.77734 1.27,19.68755 L 1943.14,0 l 4.64,0.0390625 -2.56,31.4922375 1.06,1.789 0.12,1.2695 -7.3,-0.039"
         style="fill:#000000;fill-opacity:1;fill-rule:nonzero;stroke:none"
         id="path72" /><path
         d="m 1840.07,27.5781 0.89,1.9336 2.74,-0.2148 18.79,21.4922 -0.91,2.2695 1.5,1.7539 5.84,-2.4766 -0.94,-21.3515 12.03,14.0156 -0.58,1.1133 1.02,0.7422 8.46,-3.418 -0.13,-2.168 -1.47,-0.7109 -3.8,-29.0352 2.07,-2.39059 -0.56,-1.72265 -9.95,4.39844 0.6,2.0977 1.79,0.4296 2.75,22.8985 -17.64,-21.043 -3.53,1.1641 2.42,26.4062 -14.3,-17.1406 1.26,-2.4023 -0.54,-1.2813 -7.81,4.6406"
         style="fill:#000000;fill-opacity:1;fill-rule:nonzero;stroke:none"
         id="path74" /><path
         d="m 2063.69,65.1758 1.15,0.5547 5.11,-6.0352 c -0.59,-5.3398 -2.35,-8.543 -6.34,-12.1562 -7.86,-7.4102 -17.2,-9.5782 -26.49,0.2656 -9.83,10.4844 -4.72,19.7734 3.2,27.2461 2.29,2.2851 4.21,3.4062 7.02,5.457 l 5.31,-5.625 -0.76,-1.5625 c -3.82,1.3867 -7.61,0.3399 -10.48,-2.2656 -4.43,-3.8477 -4.29,-11.2188 0.19,-14.9219 l 13.14,11.2305 -0.36,3.2812 1.12,1.1797 5.48,-5.4179 -1.25,-1.1719 -2.08,0.0195 -13.21,-12.2734 c 3.31,-5.586 11.45,-6.7969 16.42,-2.0235 3.2,2.7266 4.79,9.1993 2.83,14.2188"
         style="fill:#000000;fill-opacity:1;fill-rule:nonzero;stroke:none"
         id="path76" /><path
         d="m 2104.98,242.012 v 1.308 l 7.77,1.668 c 4.35,-3.23 6.26,-6.218 7.45,-11.425 2.54,-10.125 -0.22,-19.442 -13.06,-22.911 -13.46,-4.175 -19.61,4.739 -22.38,15.2 -0.9,3.093 -0.96,5.32 -1.49,8.738 l 7.41,1.98 0.97,-1.519 c -2.92,-2.5 -3.9,-6.399 -2.94,-10.188 1.34,-5.703 7.79,-8.972 13.27,-6.875 l -3.74,16.809 -3.12,1.277 -0.42,1.66 7.97,2.149 0.33,-1.426 -1.12,-2.168 4.21,-16.902 c 6.52,0.191 11.41,6.968 10.06,13.418 -0.84,4.109 -5.79,8.601 -11.17,9.207"
         style="fill:#000000;fill-opacity:1;fill-rule:nonzero;stroke:none"
         id="path78" /><path
         d="m 2079.78,248.691 c -3.32,6.934 -5.2,17.122 3.85,19.422 7.51,2.016 11.98,-5.164 13.03,-10.925 z m 29.44,14.961 -8.72,-4.355 c -0.02,6.699 1.74,14.211 1.01,18.008 -1.26,5.449 -2.96,6.906 -7.33,10.527 l -1.27,-1.008 c 1.27,-2.207 1.79,-2.195 2.64,-5.476 1.14,-4.637 1.02,-7.625 -0.13,-12.278 -2.51,4.746 -8.06,6.66 -14,4.934 -7.33,-1.953 -11.54,-9.578 -8.25,-16.504 l 7.3,-16.953 2.48,1.086 0.62,1.59 26.15,13.457 1.86,-1.231 1.41,0.457 -3.77,7.746"
         style="fill:#000000;fill-opacity:1;fill-rule:nonzero;stroke:none"
         id="path80" /><path
         d="m 2090.23,173.84 0.13,27.129 -2.24,7.371 9.3,-5.899 c -0.94,-0.234 -1.73,-0.546 -2.3,-1.003 -0.97,-0.989 -0.97,-5.04 -1.13,-11.125 l 29.82,0.402 0.58,1.308 1.53,-0.07 0.06,-10.683 -0.87,0.019 -1.32,2.512 -29.58,-0.5 c 0.04,-3.223 -0.43,-8.02 0.48,-8.731 0.33,-0.332 0.92,-0.683 1.7,-0.949 l -7.81,-5.176 1.65,5.395"
         style="fill:#000000;fill-opacity:1;fill-rule:nonzero;stroke:none"
         id="path82" /><path
         d="m 2121.49,148.086 2.3,12.207 -1.38,0.105 -2.1,-2.468 -28.77,5.09 -0.27,2.128 -2.46,0.204 -1.52,-11.211 1.81,-0.203 1.8,2.214 28.04,-4.824 0.97,-2.59 1.58,-0.652"
         style="fill:#000000;fill-opacity:1;fill-rule:nonzero;stroke:none"
         id="path84" /><path
         d="m 2108.78,141.73 1.25,1.336 6.78,-3.117 c 1.4,-5.523 1.16,-9.461 -1.24,-14.519 -4.85,-9.461 -11.92,-15.789 -25.34,-10.274 -13.04,5.879 -11.59,16.641 -7.22,26.707 1.35,3.098 2.67,4.785 4.35,7.707 l 7.46,-2.851 -0.57,-2.012 c -3.93,-0.203 -6.76,-1.992 -8.44,-5.477 -2.8,-5.585 1.55,-10.585 6.71,-14.621 5.14,-3.894 16.35,-2.214 19.27,3.582 1.81,3.899 0.76,9.68 -3.01,13.539"
         style="fill:#000000;fill-opacity:1;fill-rule:nonzero;stroke:none"
         id="path86" /><path
         d="m 2098.91,90.1758 6.2,10.9452 -1.38,0.039 -2.61,-1.5116 -26.57,14.5626 0.51,2.09 -2.26,0.965 -4.16,-10.02 1.69,-0.859 2.5,1.535 24.73,-13.8986 0.23,-2.6757 1.12,-1.1719"
         style="fill:#000000;fill-opacity:1;fill-rule:nonzero;stroke:none"
         id="path88" /><path
         d="m 2078.33,62.6172 17.28,19.7773 -3.71,9.5196 -2.45,-2.4883 c 0,0 0.85,-3.9649 0.52,-6.3594 -0.74,-4.7851 -7.32,-10.5391 -7.32,-10.5391 l -22.41,18.586 0.96,2.3828 -2.03,1.3672 -7.72,-9.7656 2.08,-1.4375 2.5,1.1367 21.78,-18.2422 -0.44,-2.5625 0.96,-1.375"
         style="fill:#000000;fill-opacity:1;fill-rule:nonzero;stroke:none"
         id="path90" /><path
         d="m 2018.31,17.0117 9.34,5.0664 -0.95,1.1446 -2.46,0.3711 -6.66,13.5234 c 0,0 5.56,3.9961 9.09,4.7578 1.78,0.4102 4.57,0.3828 4.57,0.3828 l -3.38,6.8438 c 0,0 -1.62,-2.0899 -2.81,-3.2344 -2.66,-2.5547 -9.42,-4.8711 -9.42,-4.8711 l -4.73,9.8828 c 0,0 6.61,4.707 10.87,5.9688 1.37,0.4179 4.04,0.9257 4.04,0.9257 0,0 0.12,1.8672 0.5,2.9297 0.62,1.836 2.34,4.4532 2.34,4.4532 l -27.41,-16.0352 0.58,-2.0195 2.72,0.0273 13.21,-26.25 -0.63,-2.2656 1.19,-1.6016"
         style="fill:#000000;fill-opacity:1;fill-rule:nonzero;stroke:none"
         id="path92" /><path
         d="m 2039.39,283.176 -81.14,12.762 c 1.01,-2.469 1.64,-5.293 1.64,-8.118 0,-11.609 -9.35,-20.984 -21.06,-20.984 -0.17,0 -0.46,0.027 -0.7,0.027 v 0 c -0.03,0 -0.03,0 -0.03,0 -0.25,0 -0.39,-0.027 -0.64,-0.027 -11.55,0 -20.5,9.375 -20.5,20.984 0,2.825 0.59,5.649 1.57,8.118 l -80.73,-12.762 c -2.34,13.758 -3.5,26.519 -3.5,37.929 0,4.122 0.21,7.926 0.49,11.817 h 48.25 c 13.28,0 14.39,-1.379 15,-2.004 0.89,-0.82 1.11,-3.027 -0.12,-3.906 -2.88,-1.809 -7.31,-3.946 -7.31,-10.449 0,-0.176 0,-0.235 0,-0.352 0,-5.227 4.61,-7.18 15.61,-11.543 3.16,-1.211 14.25,-5.598 14.25,-5.598 l 2.31,1.321 c 3.86,1.98 12.09,7.519 12.09,16.98 0,1.223 -0.15,2.192 -0.3,3.027 -0.31,1.282 -0.83,2.407 -1.36,3.34 0,0.032 0,0.039 0,0.078 -1.75,3.262 -3.86,4.243 -3.86,4.243 0,0 1.04,4.492 7.53,5.066 l 0.01,-0.051 c 0.28,0.071 0.47,0.129 0.73,0.129 0.09,0 0.46,0 0.51,0 3.25,0 5.43,-2.695 5.43,-5.879 0,-3.957 -2.53,-4.765 -2.53,-9.953 -0.07,-9.461 8.18,-15 12,-16.98 l 2.5,-1.321 c 0,0 11.32,4.387 14.41,5.598 11.14,4.363 15.62,6.316 15.62,11.543 0,0.117 0,0.176 0,0.352 0,6.503 -4.34,8.64 -7.17,10.449 -1.43,0.879 -1.18,3.086 -0.17,3.906 0.62,0.625 1.77,2.004 14.83,2.004 h 49.42 c 0.3,-3.891 0.54,-7.695 0.54,-11.817 0,-11.41 -1.26,-24.171 -3.62,-37.929 z m -7.29,-32.309 v 0 l -68.49,31.321 c 24.08,-3.731 59.05,-9.227 73.31,-11.446 -1.37,-6.523 -2.97,-12.976 -4.82,-19.875 z m -75.04,20.434 43.36,-20.434 h -29.78 z m 61.58,-62.696 c -11.21,0 -43.54,0 -52.01,0 0,6.375 0,21.075 0,29.559 h 61.9 c -2.92,-9.519 -6.17,-19.426 -9.89,-29.559 z m -74.04,42.262 v 16.086 l 10.71,-16.086 z m -23.46,0 10.66,16.086 v -16.086 z m 90.78,-59.812 c -3.39,-8.399 -6.93,-16.516 -10.62,-24.7 h -41.04 -6.36 V 78.1836 c -4.69,-6.7852 -8.82,-12.2383 -12.25,-15.9648 -0.95,-1.0079 -2.51,-2.5782 -3.52,-3.3321 -0.9,0.7539 -2.32,2.3242 -3.35,3.3321 -3.46,3.7265 -7.62,9.1796 -12.31,15.9648 v 88.1714 h -6.01 -40.79 c -3.69,8.184 -7.24,16.301 -10.48,24.7 -0.64,1.64 -1.33,3.23 -1.95,4.836 h 59.23 v 42.273 h 15.63 0.03 15.77 v -42.273 h 59.93 c -0.59,-1.606 -1.25,-3.196 -1.91,-4.836 z m -45.29,-92.8714 c 0,20.5074 0,48.7184 0,55.4104 5.74,0 19.35,0 29.04,0 -9.78,-20.664 -19.79,-39.778 -29.04,-55.4104 z m -56.44,0 c -9.29,15.6324 -19.37,34.7464 -29.06,55.4104 9.65,0 23.23,0 29.06,0 0,-6.692 0,-34.903 0,-55.4104 z m -61.42,139.9804 h 61.42 c 0,-8.484 0,-23.184 0,-29.559 -8.46,0 -40.51,0 -51.72,0 -3.75,10.133 -6.83,20.04 -9.7,29.559 z m 70.82,33.137 -13.53,-20.434 h -29.46 z m -74.49,-20.434 c -1.86,6.899 -3.45,13.352 -4.82,19.875 14.11,2.219 48.75,7.715 72.91,11.446 l -68.09,-31.321 z m 93,100.422 h 0.03 c 48.35,0 96.81,0 101.26,0 0.51,-1.894 0.98,-3.945 1.32,-6.008 h -47.66 c -20.19,0 -28.84,-4.91 -28.84,-16.695 0,-3.637 2.02,-7.563 5.3,-10.332 -2.32,-0.93 -11.99,-4.387 -13.4,-5.012 -1.15,1.301 -3.32,3.36 -3.63,6.582 0.95,1.563 3.05,4.778 3.05,9.422 0,7.246 -4.99,14.594 -17.68,14.953 v 0 0 0 0 c -5.86,-0.222 -9.56,-1.941 -12.53,-4.304 -0.19,-0.215 -0.33,-0.364 -0.52,-0.579 -5.27,-1.457 -8.59,-5.105 -8.59,-9.804 v -5.032 c 0,0 2.32,-0.242 3.65,-0.742 1.7,-0.75 2.35,-1.629 2.88,-2.351 1.44,-2.071 0.22,-6.699 -2.7,-8.145 -1.36,0.625 -11.06,4.082 -13.42,5.012 3.32,2.769 5.46,6.695 5.46,10.332 0,11.785 -8.73,16.695 -29.04,16.695 h -46.59 c 0.44,2.063 0.8,4.114 1.36,6.008 4.58,0 52.37,0 100.29,0 z m -64.77,42.41 c 0,3.899 1.26,8.996 12.53,8.996 9.16,0 12.86,-1.394 14.42,-2.539 0.76,-0.476 1.78,-1.25 1.78,-5.136 0,0 0,-20.207 0.01,-30.977 h -28.74 c 0,10.508 0,29.656 0,29.656 z m 51.13,35.239 c 0,-1.426 0,-2.891 0,-4.27 -7.5,-2.273 -13.81,-6.848 -18.08,-13.301 -3.48,2.11 -7.81,3.074 -12.24,3.528 8.63,7.07 19.33,11.863 30.32,14.043 z m -8.22,24.824 c 5.07,0 18.18,0 18.18,0 0,0 0,12.976 0,18.172 1.5,0 2.65,0 3.68,0 h 0.03 c 1.22,0 2.38,0 3.92,0 0,-5.196 0,-18.172 0,-18.172 0,0 13.16,0 18.47,0 0,-3.164 0,-4.797 0,-8.059 -5.31,0 -18.47,0 -18.47,0 0,0 0,-13.183 0,-18.469 -1.54,0 -2.7,0 -3.92,0 h -0.03 c -1.03,0 -2.18,0 -3.68,0 0,5.286 0,18.469 0,18.469 0,0 -13.11,0 -18.18,0 0,3.262 0,4.895 0,8.059 z m 45.75,-58.742 v -30.977 h -47.21 l -0.03,30.977 c 0,8.894 5.89,19.168 23.35,19.168 v 0 c 0,0 0,0 0.03,0 v 0 0 c 17.77,0 23.86,-10.274 23.86,-19.168 z m 20.63,19.875 c -4.44,-0.454 -8.69,-1.418 -12.26,-3.528 -4.17,6.453 -10.48,11.028 -18.47,13.301 0,1.379 0,2.844 0,4.27 11.42,-2.18 22.15,-6.973 30.73,-14.043 z m 21.11,-21.196 c 0,0 0,-19.148 0,-29.656 h -29.04 c 0,10.77 0,30.977 0,30.977 0,3.886 1.05,4.66 1.72,5.136 1.58,1.145 5.38,2.539 14.56,2.539 11.41,0 12.76,-5.097 12.76,-8.996 z m 46.55,-34.019 -1.55,4.363 h -32.23 v 29.656 c 0,8.203 -4.13,16.836 -15.08,20.199 -7.93,9.598 -18.8,17.586 -31.04,22.704 v 27.058 c 0,0 -13.16,0 -18.49,0 0,5.278 0,18.235 0,18.235 h -13.76 -0.03 -13.64 c 0,0 0,-12.957 0,-18.235 -4.97,0 -18.11,0 -18.11,0 v -27.058 c -12.21,-5.118 -23.24,-13.106 -30.9,-22.704 -10.77,-3.363 -14.93,-11.996 -14.93,-20.199 v -29.656 h -32.13 l -1.38,-4.363 c -3.88,-11.821 -5.6,-24.758 -5.6,-38.879 0,-43.653 16.14,-94.738 31.93,-134.531 23.97,-60.184 55.64,-114.6684 72.12,-132.813 3.93,-3.9257 7.09,-7.3828 12.32,-7.5976 0.07,-0.0469 0.23,0 0.32,0 0,0 0,0 0.03,0 v 0 c 0.16,0 0.24,-0.0469 0.37,0 5.38,0.2148 8.58,3.6719 12.43,7.5976 16.9,18.1446 48.82,72.629 72.8,132.813 15.93,39.793 32.02,90.878 32.02,134.531 0,14.121 -1.5,27.058 -5.47,38.879"
         style="fill:#000000;fill-opacity:1;fill-rule:nonzero;stroke:none"
         id="path94" /></g></g></svg>
